# File created by Blade
# Date/Time:  Fri Jan 16 17:45:28 2015
# Frame Rate: 120.000 fps
#------------------------------------------------------
:FULLY-SPECIFIED
:DEGREES
4028
root -5.333684 35.233286 -9.889021 -1.769656 -2.285361 -5.766021
Spine -0.685877 -1.340131 8.887885
Head 0.840228 4.592189 -7.695860
LeftShoulder -21.489014 13.571408 -16.063416
LeftArm 17.774397 -6.804257 -77.105238
LeftForeArm 3.797256 -0.000000 12.832911
LeftHand 1.492852 -0.000000 -4.543785
LeftHandThumb1 -26.253704 0.000000 33.147579
RightShoulder -6.247440 -0.632152 3.211357
RightArm -2.391826 -0.391141 71.477042
RightForeArm -8.360958 0.000000 17.020502
RightHand 2.578257 -0.000000 2.412499
RightHandThumb1 -24.326973 -0.000000 -32.862282
LeftUpLeg 11.082096 12.853976 6.847623
LeftLeg -9.134145 -0.000000 0.000000
LeftFoot -15.085455 26.581032 -7.631863
LeftToeBase 22.983271 -0.000000 -0.000000
RightUpLeg 8.462232 -6.340583 3.894662
RightLeg -4.247535 -0.000000 0.000000
RightFoot -5.029366 -28.711794 4.134618
RightToeBase 13.885912 -0.000000 -0.000000
4029
root -5.336580 35.233925 -9.894204 -1.762117 -2.279355 -5.759473
Spine -0.622421 -1.306143 8.964261
Head 0.591127 4.883278 -7.784407
LeftShoulder -21.497813 13.539623 -16.133074
LeftArm 17.849768 -6.554413 -76.996928
LeftForeArm 3.704371 -0.000000 12.841572
LeftHand 1.411490 0.000000 -4.540222
LeftHandThumb1 -26.253704 0.000000 33.147579
RightShoulder -6.172388 -0.716223 3.181704
RightArm -2.332739 -0.903407 71.645898
RightForeArm -8.569416 -0.000000 16.872966
RightHand 2.682783 -0.000000 3.721397
RightHandThumb1 -24.326973 -0.000000 -32.862282
LeftUpLeg 11.063446 12.886891 6.854261
LeftLeg -9.122954 -0.000000 0.000000
LeftFoot -15.034498 26.506676 -7.580395
LeftToeBase 22.914890 -0.000000 -0.000000
RightUpLeg 8.446566 -6.333526 3.899225
RightLeg -4.251362 -0.000000 0.000000
RightFoot -5.019726 -28.740274 4.125319
RightToeBase 13.879528 -0.000000 -0.000000
4030
root -5.338145 35.234483 -9.900610 -1.755286 -2.267017 -5.742826
Spine -0.549162 -1.249899 9.040412
Head 0.329857 5.105229 -7.899254
LeftShoulder -21.449879 13.474501 -16.190920
LeftArm 17.875019 -6.421561 -76.921304
LeftForeArm 3.735983 -0.000000 12.870939
LeftHand 1.333789 -0.000000 -4.592194
LeftHandThumb1 -26.253704 0.000000 33.147579
RightShoulder -6.112506 -0.833973 3.109891
RightArm -2.245437 -1.356105 71.865581
RightForeArm -8.909724 -0.000000 16.744791
RightHand 2.827790 -0.000000 4.931961
RightHandThumb1 -24.326973 -0.000000 -32.862282
LeftUpLeg 11.052139 12.850789 6.826055
LeftLeg -9.152044 -0.000000 0.000000
LeftFoot -15.026609 26.554856 -7.679831
LeftToeBase 22.893212 -0.000000 -0.000000
RightUpLeg 8.430490 -6.321076 3.888672
RightLeg -4.249697 -0.000000 0.000000
RightFoot -5.028499 -28.760726 4.115197
RightToeBase 13.930049 -0.000000 -0.000000
4031
root -5.340932 35.235135 -9.905762 -1.757463 -2.266919 -5.738446
Spine -0.471508 -1.206988 9.108635
Head 0.099147 5.392139 -7.927470
LeftShoulder -21.457580 13.446422 -16.261049
LeftArm 17.959914 -6.262166 -76.879497
LeftForeArm 3.365436 -0.000000 12.864864
LeftHand 1.319984 -0.000000 -4.771582
LeftHandThumb1 -26.253704 0.000000 33.147579
RightShoulder -6.071569 -0.907676 3.068367
RightArm -2.188813 -1.912211 72.054591
RightForeArm -9.240095 -0.000000 16.652275
RightHand 2.884763 -0.000000 5.756144
RightHandThumb1 -24.326973 -0.000000 -32.862282
LeftUpLeg 11.045820 12.881364 6.829129
LeftLeg -9.153643 -0.000000 0.000000
LeftFoot -15.021272 26.529310 -7.677782
LeftToeBase 22.931769 -0.000000 -0.000000
RightUpLeg 8.424003 -6.315866 3.889172
RightLeg -4.246789 -0.000000 0.000000
RightFoot -5.024636 -28.748736 4.113967
RightToeBase 13.914603 -0.000000 -0.000000
